<svg width="196" height="76" xmlns="http://www.w3.org/2000/svg">
 <!-- Generator: Sketch 3.8.3 (29802) - http://www.bohemiancoding.com/sketch -->
 <title>Slice 16</title>
 <desc>Created with Sketch.</desc>

 <g>
  <title>background</title>
  <rect fill="none" id="canvas_background" height="78" width="198" y="-1" x="-1"/>
 </g>
 <g>
  <title>Layer 1</title>
  <g fill-rule="evenodd" fill="none" id="0.1">
   <g stroke="null" fill="#006CFF" id="Group-14">
    <path stroke="null" id="Fill-1-Copy" d="m59.713355,14.854719l-4.879227,-4.85472l-5.097792,5.07226l-0.264229,0.268641l5.362022,5.394989l5.378509,-5.394989l-0.499282,-0.48618zm18.489658,18.826907l-23.383019,23.266168l-23.368885,-23.251903l-3.451589,3.498398l26.820474,26.686101l26.835085,-26.700366l-3.452066,-3.498398zm-23.383019,1.887682l-12.724434,-12.660426l-3.452066,3.49838l16.1765,16.095226l16.190157,-16.109491l-3.452051,-3.49838l-12.738106,12.674691z"/>
    <path stroke="null" id="Combined-Shape" d="m160.347843,62.321151l4.556837,0l0.391824,0l0,0.49445l0,2.256927l0,0.494431l-0.391824,0l-25.049671,0l-0.391839,0l0,-0.494431l0,-2.256927l0,-0.49445l0.391839,0l3.757343,0l-2.700469,-19.905604l-0.066605,-0.490898l0.389515,-0.080457l1.801708,-0.372195l0.383871,-0.07931l0.065652,0.483812l2.773776,20.444652l4.260229,0l0,-24.658799l-12.047127,0l-0.391839,0l0,-0.494431l0,-2.256946l0,-0.494431l0.391839,0l12.047127,0l0,-10.706495l-7.90082,0l-0.391824,0l0,-0.49445l0,-2.256927l0,-0.49445l0.391824,0l18.740841,0l0.391824,0l0,0.49445l0,2.256927l0,0.49445l-0.391824,0l-8.229733,0l0,10.706495l13.527994,0l0.391839,0l0,0.494431l0,2.256946l0,0.494431l-0.391839,0l-13.527994,0l0,24.658799l4.570108,0l2.772734,-20.444614l0.065607,-0.48385l0.3839,0.07931l1.801723,0.372195l0.389486,0.080457l-0.066575,0.490879l-2.699457,19.905623zm-36.579047,-1.056877l0,-15.88962l5.999249,0l0.391824,0l0,-0.494431l0,-16.177769l0,-0.494431l-0.391824,0l-1.82664,0l-0.391824,0l0,0.494431l0,13.426392l-3.780785,0l0,-14.438728l0,-0.494431l-0.391824,0l-1.826625,0l-0.391839,0l0,0.494431l0,14.438728l-3.721657,0l0,-13.426392l0,-0.494431l-0.391824,0l-1.827772,0l-0.391824,0l0,0.494431l0,16.177769l0,0.494431l0.391824,0l5.941253,0l0,15.88962l-3.721657,0l0,-13.213701l0,-0.494431l-0.391824,0l-1.827772,0l-0.391824,0l0,0.494431l0,15.965078l0,0.494431l0.391824,0l14.550791,0l0.391824,0l0,-0.494431l0,-15.965078l0,-0.494431l-0.391824,0l-1.82664,0l-0.391824,0l0,0.494431l0,13.213701l-3.780785,0zm-21.79514,-15.887534l-1.845838,2.285832l-0.273776,0.339043l-0.274432,-0.338197l-1.293251,-1.593708l-0.286362,-0.352894l0.285691,-0.353758l3.687968,-4.566458l0,-18.943786l-2.829866,0l-0.391839,0l0,-0.494431l0,-2.256946l0,-0.494431l0.391839,0l2.829866,0l0,-8.112142l0,-0.49445l0.391824,0l1.827757,0l0.391839,0l0,0.49445l0,8.112142l3.375929,0l0.391824,0l0,0.494431l0,2.256946l0,0.494431l-0.391824,0l-3.375929,0l0,15.710289l2.187157,-2.70817l0.273895,-0.339137l0.274417,0.33846l1.292119,1.593708l0.286108,0.352875l-0.285542,0.353608l-4.028155,4.988382l0,7.012433c0,3.579607 -0.440154,7.007866 -1.177944,10.174815c-0.452799,1.943613 -0.905196,3.358722 -1.259294,4.269777l-0.399762,1.014441l-0.171442,0.435061l-0.347724,-0.208726l-1.640915,-0.985047l-0.358819,-0.215416l0.175716,-0.44972l0.397067,-1.016264c0.057117,-0.144657 0.188435,-0.516082 0.342213,-1.001304c0.255055,-0.804869 0.509901,-1.725434 0.747441,-2.746302c0.676607,-2.907724 1.082044,-6.038437 1.082044,-9.271315l0,-3.778522zm8.353321,19.421322l0.078684,-0.480617l0.181197,-1.106775c1.089401,-6.649522 1.49801,-21.086427 1.450827,-38.667578l18.852946,0l0,-14.543091l-21.202757,0l-0.400671,0l0.008936,0.505463l0.02039,1.152952c0.019198,1.099145 0.050445,3.534502 0.07362,6.461019c0.038143,4.819613 0.04556,9.814817 0.009666,14.728549c-0.101977,13.964331 -0.527804,24.564942 -1.37192,29.714764l-0.180154,1.105967l-0.079398,0.487458l0.386805,0.097033l1.790389,0.449156l0.381443,0.095699zm1.702784,-43.500778l-0.084998,-8.051475l16.335579,0l0,8.051475l-16.250581,0zm54.192687,3.38556l0.263395,-0.352198l1.240036,-1.658077l0.274595,-0.367158l-0.296638,-0.33878l-10.3664,-11.838793l-0.262934,-0.127836l-10.832961,0l-0.262934,0.127855l-10.365269,11.838793l-0.296474,0.33861l0.274313,0.367158l1.238904,1.658058l0.263381,0.352499l0.284649,-0.325098l9.84095,-11.112069l8.879054,0l9.839803,11.112031l0.28453,0.325004z"/>
   </g>
  </g>
 </g>
</svg>